<svg id="bufala" xmlns="http://www.w3.org/2000/svg" xmlns:xlink="http://www.w3.org/1999/xlink" width="141.374" height="112.24" viewBox="0 0 141.374 112.24">
  <defs>
    <clipPath id="clip-path">
      <rect id="Rectangle_160" data-name="Rectangle 160" width="141.374" height="112.24" fill="#383737"/>
    </clipPath>
  </defs>
  <g id="Group_1136" data-name="Group 1136" clip-path="url(#clip-path)">
    <path id="Path_106" data-name="Path 106" d="M123.469,14.845s.877,1.3,4.605-.039,9.364.732,10.838,2.967,3.825,5.77,1.445,9.788-3.43,4.007-4.027,7.476-2.861,3.69-6.261,4.547-3.208-2.533-5.472,2.091-2.663,8.032-11.834,12.715a39.3,39.3,0,0,1-11.672,4.762c-6.638,1.474-4.923-.53-8.083.491s-7.919.251-13.2,7.756S60.266,93.556,58.464,96.206,47.588,110.647,40.546,112.2,21.325,71.834,18,55.486s-3.767-20.876-3.767-20.876S5.513,29.561,1.2,24.513s3.776-2.187,12.514.76a43.516,43.516,0,0,0,24.1,1.069c6.6-1.677,5.144-1.609,5.144-1.609s-2.582-.347-6.667-4.181a27.822,27.822,0,0,1-6.388-8.217c-1.551-2.64-2.129-5.674,2.919-1.185S40.571,16.593,45.908,16s6.611-.84,8.576-3.73c0,0,3.4-7.146,8.629-9.4S72.717-.643,78.566.339s6.069,3.246,8.275,4.922S93.633,9,103.065,11.185s20.4,3.66,20.4,3.66" transform="translate(0 -0.001)" fill="#383737"/>
  </g>
</svg>
