<svg xmlns="http://www.w3.org/2000/svg" width="50" height="50" viewBox="0 0 50 50">
  <g id="social-ig" transform="translate(-0.191)">
    <circle id="Ellipse_18" data-name="Ellipse 18" cx="25" cy="25" r="25" transform="translate(0.191)" fill="#383737"/>
    <path id="rect3687" d="M718.766,129.068a6.685,6.685,0,0,0-6.677,6.679V145.4a6.684,6.684,0,0,0,6.677,6.677h9.715a6.684,6.684,0,0,0,6.677-6.677v-9.657a6.685,6.685,0,0,0-6.677-6.679Zm0,1.978h9.715a4.669,4.669,0,0,1,4.7,4.7V145.4a4.668,4.668,0,0,1-4.7,4.7h-9.715a4.666,4.666,0,0,1-4.7-4.7v-9.657A4.668,4.668,0,0,1,718.766,131.047Zm11.049,1.978a1.383,1.383,0,1,0,1.383,1.383A1.383,1.383,0,0,0,729.815,133.025Zm-6.191,1.625a5.925,5.925,0,1,0,5.927,5.925A5.94,5.94,0,0,0,723.623,134.65Zm0,1.978a3.947,3.947,0,1,1-3.947,3.947A3.933,3.933,0,0,1,723.623,136.628Z" transform="translate(-698.698 -115.678)" fill="#fff"/>
  </g>
</svg>
