<svg xmlns="http://www.w3.org/2000/svg" width="50" height="50" viewBox="0 0 50 50">
  <g id="social-id" transform="translate(-0.317)">
    <circle id="Ellipse_19" data-name="Ellipse 19" cx="25" cy="25" r="25" transform="translate(0.317)" fill="#383737"/>
    <path id="path4157" d="M720.418,233.809a2.085,2.085,0,1,1-.03,4.158h-.022a2.085,2.085,0,1,1,.052-4.158Zm11.8,5.524c2.634,0,4.6,1.72,4.6,5.42v6.9h-4v-6.444c0-1.619-.578-2.725-2.027-2.725a2.2,2.2,0,0,0-2.057,1.47,2.727,2.727,0,0,0-.126.973v6.726H724.6s.052-10.912,0-12.042h4.009v1.7A3.974,3.974,0,0,1,732.222,239.332Zm-3.608,1.982-.03.045h.03Zm-10.223-1.7h4v12.042h-4Z" transform="translate(-702.532 -217.741)" fill="#fff"/>
  </g>
</svg>
